<svg xmlns="http://www.w3.org/2000/svg" width="18" height="18" viewBox="0 0 18 18"><defs><style>.a{fill:#9d9aa8;}</style></defs><path class="a" d="M11.929,9.486a1.456,1.456,0,0,0-.571-.643,4.185,4.185,0,0,0-.914-.414,11.019,11.019,0,0,0-1.186-.3c-.343-.071-.6-.143-.743-.186a2.681,2.681,0,0,1-.429-.171.922.922,0,0,1-.314-.243.461.461,0,0,1-.114-.3.6.6,0,0,1,.329-.5A1.748,1.748,0,0,1,8.914,6.5a1.612,1.612,0,0,1,.9.2,2.007,2.007,0,0,1,.486.586,1.541,1.541,0,0,0,.314.414.651.651,0,0,0,.457.143.755.755,0,0,0,.557-.229.7.7,0,0,0,.214-.514,1.2,1.2,0,0,0-.171-.6,1.907,1.907,0,0,0-.514-.571,2.44,2.44,0,0,0-.886-.429,4.142,4.142,0,0,0-1.257-.157,4.716,4.716,0,0,0-1.571.243A2.166,2.166,0,0,0,6.4,6.3a1.7,1.7,0,0,0-.357,1.071,1.648,1.648,0,0,0,.343,1.057A2.459,2.459,0,0,0,7.3,9.1a7.539,7.539,0,0,0,1.4.414c.414.086.743.171.986.243a1.381,1.381,0,0,1,.571.314.618.618,0,0,1,.2.5.763.763,0,0,1-.4.657,1.912,1.912,0,0,1-1.086.271,1.691,1.691,0,0,1-.771-.143,1.087,1.087,0,0,1-.443-.343,2.721,2.721,0,0,1-.314-.543,1.234,1.234,0,0,0-.314-.457.749.749,0,0,0-.471-.157.805.805,0,0,0-.557.2.684.684,0,0,0-.229.5,1.67,1.67,0,0,0,.343.957,2.569,2.569,0,0,0,.886.771,4.18,4.18,0,0,0,1.914.4,4.545,4.545,0,0,0,1.671-.286,2.482,2.482,0,0,0,1.086-.814,2,2,0,0,0,.371-1.171A1.9,1.9,0,0,0,11.929,9.486Z"/><path class="a" d="M13.486,0H4.5A4.521,4.521,0,0,0,0,4.514V13.5A4.518,4.518,0,0,0,4.5,18h8.986A4.524,4.524,0,0,0,18,13.486V4.514A4.524,4.524,0,0,0,13.486,0ZM11.514,14.614a3.2,3.2,0,0,1-1.471-.357,5.5,5.5,0,0,1-.986.086A5.326,5.326,0,0,1,3.7,9.057,5.208,5.208,0,0,1,3.814,8a3.018,3.018,0,0,1-.429-1.543A3.079,3.079,0,0,1,6.486,3.4a3.153,3.153,0,0,1,1.657.471A6.4,6.4,0,0,1,9.057,3.8a5.326,5.326,0,0,1,5.357,5.286,4.881,4.881,0,0,1-.129,1.129,3.117,3.117,0,0,1,.329,1.357A3.076,3.076,0,0,1,11.514,14.614Z"/></svg>